<?xml version="1.0" encoding="UTF-8" standalone="no"?>
<!-- Created with Inkscape (http://www.inkscape.org/) -->

<svg
   version="1.1"
   id="svg2"
   width="670.90668"
   height="371.35999"
   viewBox="0 0 670.90668 371.35999"
   sodipodi:docname="logo city salads EDITABLE.eps"
   xmlns:inkscape="http://www.inkscape.org/namespaces/inkscape"
   xmlns:sodipodi="http://sodipodi.sourceforge.net/DTD/sodipodi-0.dtd"
   xmlns="http://www.w3.org/2000/svg"
   xmlns:svg="http://www.w3.org/2000/svg">
  <defs
     id="defs6" />
  <sodipodi:namedview
     id="namedview4"
     pagecolor="#ffffff"
     bordercolor="#000000"
     borderopacity="0.25"
     inkscape:showpageshadow="2"
     inkscape:pageopacity="0.0"
     inkscape:pagecheckerboard="0"
     inkscape:deskcolor="#d1d1d1" />
  <g
     id="g8"
     inkscape:groupmode="layer"
     inkscape:label="ink_ext_XXXXXX"
     transform="matrix(1.3333333,0,0,-1.3333333,0,371.36)">
    <g
       id="g10"
       transform="scale(0.1)">
      <path
         d="m 944.586,2415 c 0,0.8 -39.293,71.51 -59.496,104.5 -20.301,32.91 -9.902,43.3 1.203,39.41 10.898,-3.71 78.895,-114.9 79.797,-116.5 0.797,-1.9 20.898,15.6 23.898,17.5 3.102,1.7 -23.101,47.99 -52.797,93.7 -29.703,45.69 -14.902,58.09 -5.601,54.89 9.101,-3.39 84.5,-125.49 85.9,-130.89 1.7,-5.31 35.1,8.9 37.5,9.8 2.4,0.89 -41.5,76 -56.998,100.2 -15.402,24.39 -15.105,48.5 -0.199,43.8 14.797,-4.8 93.697,-143.3 95.797,-145.1 2,-1.9 23.1,0.49 34.7,0.9 -31.5,63.3 -108.7,190.2 -135.802,220.09 -26.398,29.11 -52.3,16.61 -127.398,-27 -75,-43.69 -79.902,-94.3 -77.098,-104.39 2.699,-10.2 131.098,-191.5 132.899,-194 1.699,-2.71 23.695,32.2 23.695,33.09 z M 746.887,1753.9 c -112.797,14.91 -196.699,148.4 -138.797,288.6 57.898,140.11 276,168.3 323.398,168.3 47.403,0 84.602,-21.39 190.602,1.5 106.2,23 88.3,104.61 79.4,145.31 l 38.5,0.8 c -0.1,5.79 -0.6,16.99 -54.7,54.89 -54.3,37.81 -104,37.81 -158.8,17.1 -54.9,-20.8 -69.701,-86.7 -83.9,-94.89 -14,-8.21 -19.5,5.69 -22.297,12.5 -2.102,1.9 -6.5,5.29 -88.902,107.6 -82.301,102.29 -118.703,143.3 -113.504,163.89 5.203,20.8 102.301,118.71 171.301,147.01 69.003,28.09 105.3,20 113.502,5.1 8.2,-14.91 103.8,-192.8 155.7,-289.31 9.7,-2.3 28.9,-6.9 68.3,-41.19 39.4,-34.11 56.1,-85.81 56.5,-86.81 0.5,-0.89 -22.2,-5 -33.5,-7 6.4,-110.39 -35.2,-146.5 -91.3,-160.3 82.7,-10.49 255.7,-22.8 377.5,-18.39 116.5,4.09 155.2,77.19 180.4,59.4 25.3,-17.9 -8.1,-71.01 -97.1,-148.01 -89.1,-77.2 -182.5,-99.49 -229.1,-110.4 l -44.4,18.3 c 118.1,19.51 207.9,70.51 266.7,155.4 -3,-1.5 -8.9,-4.39 -35.6,-10.29 -26.8,-6.01 -119.4,-10.31 -233,-3.01 -113.4,7.41 -361.903,41.41 -516.2,15.61 -154.301,-26.01 -243.902,-209.2 -148.301,-314.5 95.699,-105.31 206.5,-36.11 261.801,-1.51 -27.102,-30.19 -81.504,-90.49 -194.203,-75.7"
         style="fill:#5a3425;fill-opacity:1;fill-rule:evenodd;stroke:none"
         id="path12" />
      <path
         d="m 1187.49,2112 c 141.3,-142.5 131.9,-316.7 -36.1,-524.1 212.3,5.6 424.2,3.5 632.4,-66.5 -23.8,27.5 -49.3,53.71 -76.7,78.6 -84.5,76.91 -187.5,141.61 -314,190.61 181.5,-28 363,-143.2 544.5,-342.71 9.7,-19.69 29,-59.29 -0.7,-55.2 -29.6,4.21 -171.6,88.91 -389.1,116.41 -217.5,27.6 -458.5,25.6 -459.4,24.59 -80.5,-64.19 -241.304,-192.59 -540.3,-229.69 -299.199,-37 -399.602,50.3 -330.402,80.7 69.3,30.4 213.5,34.19 366.5,156.69 152.8,122.5 157.203,135.7 159.402,142.41 -51.703,-140.71 -182.602,-244.8 -381.602,-318.1 63.703,-11 147.703,-26 389.5,50.9 257.302,81.69 487.002,322.5 476.002,461.6 l -8.3,92.59 c 18.4,0.11 -9,72.41 -31.7,141.2"
         style="fill:#5a3425;fill-opacity:1;fill-rule:evenodd;stroke:none"
         id="path14" />
      <path
         d="m 1087.49,2372.1 c 0,15.7 12.8,28.51 28.5,28.51 15.8,0 28.5,-12.81 28.5,-28.51 0,-15.69 -12.7,-28.49 -28.5,-28.49 -15.7,0 -28.5,12.8 -28.5,28.49"
         style="fill:#5a3425;fill-opacity:1;fill-rule:evenodd;stroke:none"
         id="path16" />
      <path
         d="m 630.59,1927.1 c 435.5,-21.99 813,-84.09 1146.8,-176.5 31.9,-6.99 95.7,-20.8 106.4,37.41 10.7,58.1 7.2,131.79 -36.8,143.6 -44,11.89 -548.3,71.19 -637.3,77.09 -89.1,5.9 -495.702,9.1 -698.901,10.71 -11.996,28.89 -35.699,86.7 -144.898,104.4 -109.102,17.8 -190.801,3.6 -248.903,-4.7 -58.195,-8.4 -109.90206,-23.2 -104.9997,-42.7 4.6992,-19.71 18.9023,-16.7 105.4997,-17.3 86.801,-0.61 170.399,0 182.203,-1.81 11.997,-1.69 35.598,-18.89 20.2,-40.89 -15.403,-22 -84.2,-9.61 -144.2,-8.3 -60,1.19 -153.1012,3.69 -166.70272,-3.61 -13.69922,-7 -18.49609,-40.3 36.19922,-40.3 54.5039,0 265.8005,4.1 278.2035,-17.79 12.5,-22 14.398,-43.91 -64.004,-43.91 -78.297,0 -230.8987,4.71 -251.19559,-17.9 -20.00001,-22.39 45.89839,-52.69 186.49959,-52.1 140.598,0.61 185.801,0.51 236.797,20.71 56.602,22.5 78.203,59.4 80,80.09 l 119.102,-6.2"
         style="fill:#f14c44;fill-opacity:1;fill-rule:evenodd;stroke:none"
         id="path18" />
      <path
         d="m 3780.39,639.91 c 82.6,15.09 145.4,81 165.2,162.699 v 111.289 c -26.51,110.412 -128.1,182.412 -234.8,162.712 -112.4,-20.61 -188.1,-135.098 -168.9,-255.61 19.2,-120.488 126.1,-201.691 238.5,-181.09 z m -936.5,0 c 75.1,13.699 133.8,69.399 158.8,140.801 v 155.398 c -34.1,97.591 -129,158.801 -228.5,140.501 -112.4,-20.61 -188,-135.098 -168.8,-255.61 19.3,-120.488 126.1,-201.691 238.5,-181.09 z m -1279.6,0 c 75.1,13.789 133.7,69.5 158.6,141 V 936 c -33.9,97.7 -129,158.91 -228.4,140.61 -112.4,-20.41 -188,-135.098 -168.8,-255.61 19.2,-120.488 125.9,-201.691 238.6,-181.09 z m 526.7,-157.308 V 1522.01 h 182.7 V 482.602 Z m 2334.6,-7.903 c -107.4,31.012 -143.7,85.91 -162,113.41 l 114.6,128.801 c 37.9,-34.301 113.9,-102.801 166.1,-92 52.29,10.699 125.1,62.391 23.7,130.602 -101.5,68.297 -189.6,86.199 -252.8,180.488 -64.4,96.01 5,287.81 157.3,313.8 152.5,25.91 258,-62.89 309,-118.6 -0.8,1.9 -76.8,-79.1 -114.8,-119.69 -24.2,24.69 -72.5,74 -129.5,72.1 -57,-1.7 -95.5,-46.9 -44.6,-83.01 51.1,-36.291 195.9,-92.1 250,-157.901 53.9,-65.89 83.6,-163.187 19.5,-271.801 -64.2,-108.488 -229.1,-126.886 -336.5,-96.199 z m -3772.102,0 c -107.5,31.012 -143.797,85.91 -162.097,113.41 L 605.988,716.91 c 38,-34.301 114,-102.801 166.098,-92 52.203,10.699 125.305,62.391 23.703,130.602 C 694.387,823.809 606.188,841.711 543.09,936 c -64.5,96.01 4.797,287.81 157.297,313.8 152.203,25.91 257.804,-62.89 309.003,-118.6 -0.9,1.9 -76.902,-79.1 -114.902,-119.69 -24.101,24.69 -72.699,74 -129.398,72.1 -57.098,-1.7 -95.504,-46.9 -44.598,-83.01 50.996,-36.291 195.801,-92.1 249.895,-157.901 53.903,-65.89 83.603,-163.187 19.402,-271.801 -63.898,-108.488 -229,-126.886 -336.301,-96.199 z m 2707.602,316.61 c -32.01,216.101 93.6,421.391 280.2,458.401 115.9,22.9 228.19,-24.4 304.3,-115.2 v 387.4 h 182.8 V 482.5 h -182.8 v 99.699 c -48.9,-58.59 -113.9,-100.39 -188.61,-115.187 -186.49,-36.91 -363.89,108.386 -395.89,324.297 z m -936.4,0 c -32,216.101 93.6,421.391 280,458.401 112.7,22.3 222,-21.81 298,-107.7 v 79.8 h 182.7 V 482.5 h -182.7 v 92.102 c -48.21,-54.692 -110.71,-93.403 -182.2,-107.59 -186.6,-36.91 -364,108.386 -395.8,324.297 z m -1279.8,0 c -32,216.101 93.6,421.391 280.2,458.401 112.6,22.3 221.9,-21.81 297.8,-107.8 v 79.9 h 182.8 V 482.5 h -182.8 v 92.199 c -48.1,-54.699 -110.6,-93.5 -182.1,-107.687 -186.6,-36.91 -364.1,108.386 -395.9,324.297"
         style="fill:#69c52f;fill-opacity:1;fill-rule:evenodd;stroke:none"
         id="path20" />
      <path
         d="m 3297.29,1594.2 v 548.81 h -123.9 v 135.8 h 373.4 v -135.8 h -123.9 V 1594.2 Z m -426.6,0 v 684.61 h 125.6 V 1594.2 Z m 1004,-0.09 v 329.3 l -191,349.29 139.4,1.6 132,-240.39 114.2,237.5 h 145.5 l -199.1,-372.71 v -304.59 z m -1753.3,84.7 c -143.3,142.1 -143.3,372.8 0,515 143.3,141.99 375.9,141.99 519.2,0 12.7,-12.81 24.4,-26.11 34.8,-40 l -99,-88.61 c -8.6,12.6 -18.3,24.51 -29.4,35.51 -91.6,90.9 -240.3,90.9 -331.9,0 -91.5,-90.8 -91.5,-238.21 0,-329.01 91.6,-90.9 240.3,-90.9 331.9,0 9.9,10 18.8,20.6 26.7,31.71 l 92.3,-96.5 c -7.8,-9.61 -16.4,-19.1 -25.4,-28.1 -143.3,-142 -375.9,-142 -519.2,0"
         style="fill:#5a3425;fill-opacity:1;fill-rule:evenodd;stroke:none"
         id="path22" />
      <path
         d="m 889.188,2766.51 c 69.003,28.09 105.3,20 113.502,5.1 1.1,-2.11 4.3,-7.8 8.9,-16.31 H 866.488 c 7.801,4.5 15.399,8.11 22.7,11.21 z M 746.887,1753.9 c -112.797,14.91 -196.699,148.4 -138.797,288.6 19.598,47.5 57.699,82.21 101.297,107.21 V 2086 c -73.297,-69.49 -96.996,-181.2 -30.098,-254.89 95.699,-105.31 206.5,-36.11 261.801,-1.51 -27.102,-30.19 -81.504,-90.49 -194.203,-75.7"
         style="fill:#5a3425;fill-opacity:1;fill-rule:evenodd;stroke:none"
         id="path24" />
      <path
         d="m 982.488,275.398 c -15.402,14.411 -31.898,21.614 -49.398,21.614 -13.902,0 -25,-6.403 -33.301,-19.301 -8.398,-12.902 -12.5,-32.5 -12.5,-58.602 0,-24.8 3.899,-43.5 11.699,-56.211 7.801,-12.687 18.7,-18.988 32.602,-18.988 17.797,0 34.801,10.602 50.898,31.891 z M 895.891,76.1992 c 3.597,-16.789 16.097,-25.1875 37.5,-25.1875 14.402,0 25.699,4.7891 34,14.4883 8.199,9.7109 13.101,24.8086 14.597,45.301 C 973.891,104.91 965.387,100.398 956.688,97.5 947.887,94.5117 938.59,93 928.59,93 c -16.703,0 -31.399,3.0117 -44.203,9.012 -12.899,6.097 -23.598,14.597 -32.301,25.59 -8.598,11.097 -15.199,24.308 -19.695,39.898 -4.504,15.5 -6.7,32.711 -6.7,51.609 0,20 2.598,37.993 7.997,53.789 5.3,15.903 12.703,29.411 22.101,40.5 9.399,11.204 20.602,19.711 33.399,25.614 12.8,5.988 26.601,8.988 41.402,8.988 9.703,0 18.797,-1.191 27.5,-3.398 8.699,-2.192 16.801,-5.403 24.398,-9.602 v 7.102 h 59.602 V 117.898 C 1042.09,39.3086 1006.29,0 934.691,0 920.09,0 906.887,1.80859 894.988,5.21094 c -11.797,3.48828 -21.996,8.48826 -30.8,15.09766 -8.696,6.5 -15.7,14.5 -20.997,23.8906 -5.199,9.4102 -8.5,20.1094 -9.703,32 h 62.403"
         style="fill:#f14c44;fill-opacity:1;fill-rule:nonzero;stroke:none"
         id="path26" />
      <path
         d="m 1212.29,143.91 c 7.8,0 15,1.59 21.6,4.891 6.7,3.211 12.3,8.008 17,14.5 4.6,6.398 8.3,14.41 10.9,23.898 2.7,9.5 4,20.699 4,33.41 0,12.692 -1.3,23.903 -4,33.403 -2.6,9.5 -6.3,17.398 -10.9,23.797 -4.7,6.39 -10.3,11.101 -17,14.39 -6.6,3.199 -13.8,4.813 -21.6,4.813 -8,0 -15.3,-1.614 -21.9,-4.813 -6.7,-3.289 -12.3,-8 -17,-14.39 -4.6,-6.399 -8.3,-14.297 -10.9,-23.797 -2.7,-9.5 -4,-20.711 -4,-33.403 0,-12.711 1.3,-23.91 4,-33.41 2.6,-9.488 6.3,-17.5 10.9,-23.898 4.7,-6.492 10.3,-11.289 17,-14.5 6.6,-3.301 13.9,-4.891 21.9,-4.891 z m 0,204.09 c 17.6,0 33.6,-2.898 47.7,-8.691 14.2,-5.797 26.3,-14.098 36.3,-25 10.1,-10.797 17.8,-24.207 23.2,-40 5.4,-15.797 8.2,-33.7 8.2,-53.7 0,-20 -2.8,-37.898 -8.3,-53.699 -5.5,-15.801 -13.3,-29.199 -23.3,-40.211 -10,-10.898 -22.2,-19.289 -36.4,-25 -14.3,-5.8006 -30.1,-8.699 -47.4,-8.699 -17.2,0 -32.8,2.8008 -47,8.512 -14.2,5.687 -26.3,13.886 -36.4,24.687 -10.1,10.813 -18,24.11 -23.6,40 -5.6,15.903 -8.4,34.012 -8.4,54.41 0,20 2.7,37.903 8.3,53.7 5.5,15.793 13.3,29.203 23.3,40 10,10.902 22.1,19.203 36.4,25 14.3,5.793 30.1,8.691 47.4,8.691"
         style="fill:#f14c44;fill-opacity:1;fill-rule:nonzero;stroke:none"
         id="path28" />
      <path
         d="M 1525.79,113.109 C 1508.69,99.6992 1489.69,93 1468.79,93 c -57.6,0 -86.4,30.91 -86.4,92.711 v 156.391 h 60.9 V 187.711 c 0,-15.109 2.5,-25.801 7.4,-32.313 4.9,-6.488 12.9,-9.687 23.9,-9.687 18.4,0 35.4,9.789 51.2,29.289 v 167.102 h 59.9 V 98.9102 h -59.9 v 14.1988"
         style="fill:#f14c44;fill-opacity:1;fill-rule:nonzero;stroke:none"
         id="path30" />
      <path
         d="m 1790.99,282.5 c -5.3,2.199 -10.2,3.91 -14.9,5 -4.7,1.109 -11.1,1.609 -19.2,1.609 -8.2,0 -15.7,-2.097 -22.5,-6.211 -6.7,-4.199 -13.5,-10.589 -20.1,-19.289 V 98.9102 h -59.8 V 342.102 h 59.8 v -13.993 c 14.8,13.192 31,19.891 48.7,19.891 3.2,0 7.1,-0.289 11.6,-0.801 4.5,-0.5 9.9,-1.488 16.4,-2.789 V 282.5"
         style="fill:#f14c44;fill-opacity:1;fill-rule:nonzero;stroke:none"
         id="path32" />
      <path
         d="m 2152.39,98.9102 h -60.6 V 253.211 c 0,15.301 -1.9,26.098 -5.6,32.5 -3.7,6.301 -10,9.5 -18.8,9.5 -15,0 -30.7,-9.711 -47.2,-29.313 V 98.9102 h -59.6 V 253.211 c 0,15.301 -1.9,26.098 -5.7,32.5 -3.8,6.301 -10.1,9.5 -19,9.5 -14.8,0 -30.4,-9.711 -46.8,-29.313 V 98.9102 h -59.9 V 342.102 h 59.9 v -13.993 c 8.3,6.993 16.8,11.993 25.6,15.102 8.7,3.199 17.9,4.789 27.6,4.789 15.8,0 29.1,-2.789 39.8,-8.191 10.8,-5.399 19.4,-13.61 25.7,-24.5 6.7,7.191 13,12.902 18.7,17.101 5.7,4.289 11.1,7.5 16.2,9.789 5,2.313 10.1,3.813 15,4.61 4.9,0.793 10,1.191 15.3,1.191 52.9,0 79.4,-30.988 79.4,-93 V 98.9102"
         style="fill:#f14c44;fill-opacity:1;fill-rule:nonzero;stroke:none"
         id="path34" />
      <path
         d="m 2373.29,252.199 c -4,14.903 -10.3,26.102 -19.1,33.602 -8.9,7.5 -19.4,11.211 -31.6,11.211 -12.1,0 -22.6,-3.711 -31.6,-11.211 -9,-7.5 -15.5,-18.699 -19.4,-33.602 z M 2433.59,175 c -3,-13.191 -7.8,-25 -14.4,-35.191 -6.5,-10.11 -14.4,-18.7 -23.7,-25.7 -9.2,-6.91 -19.7,-12.199 -31.3,-15.8082 -11.6,-3.4922 -24.1,-5.3008 -37.3,-5.3008 -17.8,0 -34.1,2.8984 -48.8,8.699 -14.7,5.711 -27.3,14.102 -37.8,25 -10.5,11.012 -18.7,24.41 -24.5,40.211 -5.7,15.801 -8.6,33.699 -8.6,53.699 0,19.7 2.8,37.391 8.4,53.09 5.6,15.711 13.5,29.11 23.7,40.102 10.2,11.109 22.3,19.5 36.4,25.398 14.1,5.801 29.7,8.801 46.9,8.801 17.6,0 33.5,-2.898 47.7,-8.691 14.2,-5.797 26.3,-14.098 36.3,-25 10,-10.797 17.8,-24.207 23.2,-40 5.4,-15.797 8.1,-33.7 8.1,-53.7 v -19.097 h -167.6 c 3.1,-19.203 9.7,-33.614 19.8,-43.211 10.1,-9.602 22.4,-14.391 36.8,-14.391 4.6,0 9.2,0.692 13.9,2.102 4.6,1.297 9,3.297 13,5.898 4,2.692 7.4,5.899 10.4,9.699 3,3.891 5.1,8.301 6.5,13.391 h 62.9"
         style="fill:#f14c44;fill-opacity:1;fill-rule:nonzero;stroke:none"
         id="path36" />
      <path
         d="m 2595.59,98.3008 c -7.6,-1.7891 -14.6,-3.1992 -21,-3.9922 -6.4,-0.9102 -12.3,-1.3086 -17.7,-1.3086 -14.1,0 -25.4,1.6016 -33.7,5 -8.5,3.301 -14.9,8.199 -19.3,14.711 -4.4,6.598 -7.2,14.789 -8.5,24.598 -1.3,9.89 -1.9,21.3 -1.9,34.39 v 120 h -27.5 v 50.403 h 27.5 v 60.609 h 60.6 v -60.609 h 36.2 v -50.403 h -36.2 V 169.91 c 0,-5.601 0.3,-10.101 0.8,-13.5 0.5,-3.41 1.2,-6.012 2.1,-7.898 1,-1.813 2.1,-3.114 3.6,-3.703 1.4,-0.61 3.1,-0.899 5,-0.899 3.7,0 8.1,0.289 13.2,0.899 5.1,0.589 10.69,1.39 16.8,2.39 V 98.3008"
         style="fill:#f14c44;fill-opacity:1;fill-rule:nonzero;stroke:none"
         id="path38" />
      <path
         d="m 3047.99,252.199 c -3.91,14.903 -10.3,26.102 -19.1,33.602 -8.8,7.5 -19.41,11.211 -31.6,11.211 -12.1,0 -22.6,-3.711 -31.6,-11.211 -9,-7.5 -15.4,-18.699 -19.3,-33.602 z M 3108.29,175 c -3,-13.191 -7.8,-25 -14.3,-35.191 -6.6,-10.11 -14.51,-18.7 -23.7,-25.7 -9.3,-6.91 -19.7,-12.199 -31.4,-15.8082 -11.6,-3.4922 -24,-5.3008 -37.31,-5.3008 -17.79,0 -34.09,2.8984 -48.69,8.699 -14.7,5.711 -27.3,14.102 -37.9,25 -10.51,11.012 -18.7,24.41 -24.4,40.211 -5.8,15.801 -8.7,33.699 -8.7,53.699 0,19.7 2.8,37.391 8.4,53.09 5.6,15.711 13.5,29.11 23.7,40.102 10.2,11.109 22.3,19.5 36.4,25.398 14.09,5.801 29.8,8.801 46.9,8.801 17.7,0 33.6,-2.898 47.8,-8.691 14.1,-5.797 26.2,-14.098 36.3,-25 10,-10.797 17.69,-24.207 23.09,-40 5.51,-15.797 8.21,-33.7 8.21,-53.7 v -19.097 h -167.6 c 3,-19.203 9.6,-33.614 19.7,-43.211 10.1,-9.602 22.4,-14.391 36.79,-14.391 4.61,0 9.21,0.692 13.91,2.102 4.7,1.297 8.99,3.297 13,5.898 4,2.692 7.5,5.899 10.4,9.699 3,3.891 5.19,8.301 6.5,13.391 h 62.9"
         style="fill:#f14c44;fill-opacity:1;fill-rule:nonzero;stroke:none"
         id="path40" />
      <path
         d="m 3386.98,98.9102 h -74.59 l -50.2,78.3988 -49.9,-78.3988 h -74.1 l 89.1,126.3008 -83,116.891 h 74.3 l 43.6,-68.993 43.3,68.993 h 74.6 l -83,-116.891 89.89,-126.3008"
         style="fill:#f14c44;fill-opacity:1;fill-rule:nonzero;stroke:none"
         id="path42" />
      <path
         d="m 3486.29,165.102 c 15,-14.09 31.4,-21.192 49.2,-21.192 13.9,0 25,6.59 33.2,19.891 8.29,13.211 12.4,32.808 12.4,58.609 0,24.789 -3.9,43.391 -11.7,55.891 -7.81,12.5 -18.6,18.711 -32.41,18.711 -17.5,0 -34.39,-10.711 -50.69,-32.102 z m 0,164.808 c 16,12 34,18.09 54,18.09 16.29,0 30.9,-3.09 43.6,-9.09 12.69,-6.012 23.5,-14.5 32.2,-25.512 8.8,-10.898 15.4,-24.089 19.9,-39.597 4.5,-15.403 6.7,-32.602 6.7,-51.391 0,-19.601 -2.6,-37.308 -8,-53.301 -5.3,-15.898 -12.71,-29.507 -22.2,-40.808 -9.4,-11.289 -20.51,-20 -33.2,-26.102 -12.71,-6.1873 -26.6,-9.199 -41.5,-9.199 -10.2,0 -19.4,1.0117 -27.6,2.8984 -8.3,2 -16.2,5.2106 -23.9,9.8126 V 5.10156 h -59.8 V 342.102 h 59.8 V 329.91"
         style="fill:#f14c44;fill-opacity:1;fill-rule:nonzero;stroke:none"
         id="path44" />
      <path
         d="m 3833.99,282.5 c -5.3,2.199 -10.2,3.91 -14.91,5 -4.69,1.109 -11.09,1.609 -19.19,1.609 -8.2,0 -15.6,-2.097 -22.4,-6.211 -6.8,-4.199 -13.5,-10.589 -20.2,-19.289 V 98.9102 h -59.8 V 342.102 h 59.8 v -13.993 c 14.8,13.192 31,19.891 48.7,19.891 3.2,0 7.1,-0.289 11.6,-0.801 4.5,-0.5 10,-1.488 16.4,-2.789 V 282.5"
         style="fill:#f14c44;fill-opacity:1;fill-rule:nonzero;stroke:none"
         id="path46" />
      <path
         d="m 4024.29,252.199 c -3.9,14.903 -10.3,26.102 -19.1,33.602 -8.8,7.5 -19.4,11.211 -31.6,11.211 -12.1,0 -22.6,-3.711 -31.61,-11.211 -8.99,-7.5 -15.4,-18.699 -19.29,-33.602 z M 4084.59,175 c -3.01,-13.191 -7.8,-25 -14.3,-35.191 -6.6,-10.11 -14.5,-18.7 -23.71,-25.7 -9.29,-6.91 -19.69,-12.199 -31.39,-15.8082 -11.6,-3.4922 -24,-5.3008 -37.3,-5.3008 -17.8,0 -34.1,2.8984 -48.7,8.699 -14.71,5.711 -27.4,14.102 -37.9,25 -10.5,11.012 -18.6,24.41 -24.4,40.211 -5.8,15.801 -8.7,33.699 -8.7,53.699 0,19.7 2.8,37.391 8.39,53.09 5.61,15.711 13.51,29.11 23.71,40.102 10.2,11.109 22.3,19.5 36.4,25.398 14.1,5.801 29.7,8.801 46.9,8.801 17.7,0 33.6,-2.898 47.7,-8.691 14.2,-5.797 26.3,-14.098 36.3,-25 10.1,-10.797 17.8,-24.207 23.2,-40 5.5,-15.797 8.2,-33.7 8.2,-53.7 v -19.097 h -167.6 c 3,-19.203 9.6,-33.614 19.7,-43.211 10.1,-9.602 22.4,-14.391 36.8,-14.391 4.6,0 9.2,0.692 13.9,2.102 4.7,1.297 9,3.297 13,5.898 4,2.692 7.5,5.899 10.4,9.699 3,3.891 5.2,8.301 6.5,13.391 h 62.9"
         style="fill:#f14c44;fill-opacity:1;fill-rule:nonzero;stroke:none"
         id="path48" />
      <path
         d="m 4268.59,273.801 c -4.11,15.508 -16.4,23.211 -37.01,23.211 -5.19,0 -10.09,-0.403 -14.49,-1.301 -4.4,-0.801 -8.3,-2.102 -11.6,-3.801 -3.3,-1.699 -5.9,-3.801 -7.8,-6.301 -1.8,-2.609 -2.8,-5.507 -2.8,-8.699 0,-2.601 0.5,-4.711 1.4,-6.512 1,-1.789 3.3,-3.488 6.9,-5.187 3.7,-1.699 9.1,-3.602 16.2,-5.512 7.1,-1.988 16.8,-4.488 29,-7.5 15,-3.59 27.9,-7.289 38.9,-11.187 10.9,-3.91 20.1,-8.813 27.3,-14.5 7.3,-5.801 12.8,-12.903 16.4,-21.203 3.49,-8.297 5.3,-18.7 5.3,-31.11 0,-11.488 -2.4,-22.187 -7.1,-32 -4.8,-9.89 -11.5,-18.5 -20.11,-25.789 -8.69,-7.301 -19.19,-13.012 -31.49,-17.2108 -12.3,-4.0976 -26.1,-6.1992 -41.4,-6.1992 -63.8,0 -99.3,27.5 -106.5,82.5 h 61.2 c 3.19,-20.988 18.1,-31.59 44.8,-31.59 13.2,0 23.3,2.602 30.2,7.699 6.9,5.09 10.3,11.289 10.3,18.602 0,3.398 -0.7,6.199 -2.2,8.488 -1.4,2.313 -4.3,4.41 -8.5,6.403 -4.2,1.91 -10.1,3.91 -17.6,5.91 -7.5,2.097 -17.1,4.597 -29,7.687 -14.6,3.61 -27.2,7.199 -37.7,10.813 -10.5,3.699 -19.21,8.199 -26,13.488 -6.8,5.398 -11.8,12 -15.2,20 -3.3,8.012 -4.9,18.109 -4.9,30.301 0,10.5 2.2,20.398 6.6,29.41 4.4,9.098 10.7,16.988 18.8,23.699 8.2,6.699 18.1,11.988 29.6,15.789 11.49,3.813 24.39,5.801 38.7,5.801 62,0 95.2,-24.699 99.6,-74.199 h -59.8"
         style="fill:#f14c44;fill-opacity:1;fill-rule:nonzero;stroke:none"
         id="path50" />
      <path
         d="m 4515.89,273.801 c -4.1,15.508 -16.41,23.211 -37,23.211 -5.2,0 -10.1,-0.403 -14.5,-1.301 -4.4,-0.801 -8.2,-2.102 -11.6,-3.801 -3.31,-1.699 -5.9,-3.801 -7.8,-6.301 -1.8,-2.609 -2.7,-5.507 -2.7,-8.699 0,-2.601 0.4,-4.711 1.4,-6.512 0.9,-1.789 3.2,-3.488 6.8,-5.187 3.7,-1.699 9.1,-3.602 16.2,-5.512 7.1,-1.988 16.8,-4.488 29,-7.5 15,-3.59 27.9,-7.289 38.9,-11.187 10.9,-3.91 20.1,-8.813 27.39,-14.5 7.31,-5.801 12.71,-12.903 16.31,-21.203 3.5,-8.297 5.3,-18.7 5.3,-31.11 0,-11.488 -2.4,-22.187 -7.1,-32 -4.8,-9.89 -11.5,-18.5 -20.1,-25.789 -8.7,-7.301 -19.2,-13.012 -31.5,-17.2108 -12.3,-4.0976 -26.1,-6.1992 -41.4,-6.1992 -63.8,0 -99.3,27.5 -106.4,82.5 h 61.1 c 3.2,-20.988 18.2,-31.59 44.8,-31.59 13.3,0 23.3,2.602 30.2,7.699 6.9,5.09 10.3,11.289 10.3,18.602 0,3.398 -0.7,6.199 -2.1,8.488 -1.5,2.313 -4.3,4.41 -8.6,6.403 -4.2,1.91 -10.1,3.91 -17.6,5.91 -7.4,2.097 -17.1,4.597 -29,7.687 -14.61,3.61 -27.2,7.199 -37.7,10.813 -10.5,3.699 -19.2,8.199 -26,13.488 -6.8,5.398 -11.8,12 -15.1,20 -3.4,8.012 -5,18.109 -5,30.301 0,10.5 2.2,20.398 6.6,29.41 4.4,9.098 10.7,16.988 18.9,23.699 8.1,6.699 18,11.988 29.5,15.789 11.6,3.813 24.5,5.801 38.7,5.801 62,0 95.2,-24.699 99.6,-74.199 h -59.8"
         style="fill:#f14c44;fill-opacity:1;fill-rule:nonzero;stroke:none"
         id="path52" />
      <path
         d="m 4885.89,570.398 h 24.3 c 11.6,0 19.5,1.801 23.8,5.211 4.2,3.5 6.3,8.09 6.3,13.801 0,3.699 -1,7 -3.1,9.899 -2,2.89 -4.8,5 -8.4,6.492 -3.7,1.398 -10.4,2.097 -20.2,2.097 h -22.7 z m -20.1,-69.898 v 124.199 h 42.7 c 14.6,0 25.1,-1.09 31.7,-3.398 6.5,-2.289 11.7,-6.301 15.6,-11.992 3.8,-5.7 5.79,-11.809 5.79,-18.2 0,-9.097 -3.29,-17 -9.69,-23.699 -6.5,-6.801 -15.1,-10.5 -25.8,-11.398 4.4,-1.813 7.9,-4 10.49,-6.5 5,-4.91 11.21,-13.102 18.41,-24.703 l 15.1,-24.309 h -24.4 l -11.1,19.602 c -8.6,15.398 -15.6,25 -20.9,28.91 -3.7,2.898 -9,4.289 -16.1,4.289 h -11.7 V 500.5 Z m 50.6,160.211 c -16.2,0 -31.91,-4.199 -47.31,-12.5 -15.29,-8.301 -27.29,-20.211 -35.99,-35.609 -8.7,-15.5 -13,-31.59 -13,-48.293 0,-16.598 4.2,-32.5 12.7,-47.797 8.6,-15.211 20.5,-27.102 35.8,-35.614 15.3,-8.488 31.2,-12.789 47.8,-12.789 16.7,0 32.6,4.301 47.9,12.789 15.3,8.512 27.2,20.403 35.7,35.614 8.4,15.297 12.7,31.199 12.7,47.797 0,16.703 -4.3,32.793 -13,48.293 -8.6,15.398 -20.61,27.308 -36,35.609 -15.4,8.301 -31.1,12.5 -47.3,12.5 z m 0,19.09 c 19.4,0 38.3,-5 56.8,-14.891 18.39,-10 32.8,-24.199 43.1,-42.711 10.29,-18.5 15.5,-37.789 15.5,-57.89 0,-19.899 -5.1,-39 -15.21,-57.297 -10.19,-18.403 -24.39,-32.703 -42.69,-42.813 -18.3,-10.187 -37.5,-15.187 -57.5,-15.187 -19.9,0 -39.1,5 -57.4,15.187 -18.3,10.11 -32.5,24.41 -42.7,42.813 -10.3,18.297 -15.3,37.398 -15.3,57.297 0,20.101 5.1,39.39 15.5,57.89 10.3,18.512 24.7,32.711 43.2,42.711 18.5,9.891 37.4,14.891 56.7,14.891"
         style="fill:#5a3425;fill-opacity:1;fill-rule:nonzero;stroke:none"
         id="path54" />
      <path
         d="m 4667.49,147.898 h 16 c 7.7,0.102 13,1.211 15.8,3.512 2.8,2.289 4.2,5.289 4.2,9.09 0,2.398 -0.7,4.602 -2.1,6.512 -1.3,1.898 -3.2,3.386 -5.6,4.289 -2.4,1.008 -6.8,1.41 -13.3,1.41 h -15 z m -13.3,-46.199 v 82.211 h 28.2 c 9.7,0 16.6,-0.801 21,-2.301 4.3,-1.507 7.7,-4.199 10.3,-7.91 2.5,-3.789 3.8,-7.898 3.8,-12.09 0,-6 -2.1,-11.211 -6.4,-15.711 -4.3,-4.386 -10,-6.886 -17.01,-7.5 2.9,-1.199 5.21,-2.597 6.91,-4.289 3.4,-3.308 7.4,-8.711 12.2,-16.3 l 10,-16.11 h -16.21 l -7.29,13 c -5.7,10.11 -10.3,16.5 -13.8,19.102 -2.5,1.91 -6,2.808 -10.7,2.808 h -7.7 v -34.91 z m 33.5,105.903 c -10.71,0 -21.2,-2.692 -31.3,-8.192 -10.2,-5.5 -18.1,-13.398 -23.9,-23.609 -5.7,-10.192 -8.6,-20.801 -8.6,-31.891 0,-11.012 2.9,-21.5 8.5,-31.601 5.6,-10.11 13.5,-18.0004 23.6,-23.6098 10.1,-5.5898 20.7,-8.3906 31.7,-8.3906 11,0 21.5,2.8008 31.6,8.3906 10.19,5.6094 18,13.4998 23.6,23.6098 5.6,10.101 8.4,20.589 8.4,31.601 0,11.09 -2.8,21.699 -8.5,31.891 -5.7,10.211 -13.71,18.109 -23.9,23.609 -10.1,5.5 -20.6,8.192 -31.2,8.192 z m 0,12.707 c 12.8,0 25.3,-3.297 37.5,-9.911 12.2,-6.488 21.7,-15.988 28.5,-28.199 6.9,-12.199 10.3,-25 10.3,-38.289 0,-13.109 -3.4,-25.801 -10.1,-37.898 -6.7,-12.2112 -16.1,-21.6018 -28.2,-28.3011 -12.1,-6.6992 -24.8,-10.1093 -38,-10.1093 -13.21,0 -25.9,3.4101 -38,10.1093 -12.1,6.6993 -21.5,16.0899 -28.3,28.3011 -6.7,12.097 -10.1,24.789 -10.1,37.898 0,13.289 3.4,26.09 10.29,38.289 6.81,12.211 16.31,21.711 28.51,28.199 12.3,6.614 24.8,9.911 37.6,9.911"
         style="fill:#5a3425;fill-opacity:1;fill-rule:nonzero;stroke:none"
         id="path56" />
      <path
         d="m 1944.79,1570.11 h 16.1 c 7.7,0 13,1.09 15.8,3.39 2.7,2.3 4.2,5.4 4.2,9.11 0,2.5 -0.7,4.6 -2.1,6.59 -1.3,1.91 -3.2,3.3 -5.6,4.3 -2.4,0.91 -6.8,1.41 -13.3,1.41 h -15.1 z m -13.2,-46.21 v 82.1 h 28.2 c 9.7,0 16.6,-0.69 21,-2.3 4.3,-1.49 7.7,-4.1 10.3,-7.9 2.5,-3.79 3.8,-7.79 3.8,-11.99 0,-6 -2.1,-11.31 -6.4,-15.71 -4.3,-4.49 -10,-6.99 -17.1,-7.5 2.9,-1.19 5.3,-2.7 7,-4.4 3.3,-3.19 7.4,-8.59 12.2,-16.2 l 10,-16.1 h -16.2 l -7.3,12.91 c -5.7,10.2 -10.3,16.6 -13.8,19.1 -2.5,1.9 -6,2.9 -10.7,2.9 h -7.8 v -34.91 z m 33.5,105.9 c -10.7,0 -21.2,-2.79 -31.3,-8.29 -10.2,-5.51 -18.1,-13.3 -23.9,-23.5 -5.7,-10.2 -8.6,-20.91 -8.6,-31.9 0,-11.11 2.8,-21.6 8.5,-31.7 5.6,-10.1 13.5,-17.9 23.6,-23.5 10.1,-5.71 20.7,-8.5 31.7,-8.5 11,0 21.5,2.79 31.6,8.5 10.2,5.6 18,13.4 23.6,23.5 5.6,10.1 8.4,20.59 8.4,31.7 0,10.99 -2.8,21.7 -8.5,31.9 -5.7,10.2 -13.7,17.99 -23.9,23.5 -10.1,5.5 -20.6,8.29 -31.2,8.29 z m 0,12.61 c 12.8,0 25.3,-3.3 37.5,-9.8 12.2,-6.61 21.7,-16 28.5,-28.3 6.9,-12.21 10.3,-25 10.3,-38.2 0,-13.21 -3.4,-25.91 -10.1,-38.01 -6.7,-12.1 -16.1,-21.59 -28.2,-28.3 -12.1,-6.7 -24.8,-10 -38,-10 -13.3,0 -25.9,3.3 -38,10 -12.1,6.71 -21.6,16.2 -28.3,28.3 -6.7,12.1 -10.1,24.8 -10.1,38.01 0,13.2 3.4,25.99 10.3,38.2 6.8,12.3 16.3,21.69 28.5,28.3 12.3,6.5 24.8,9.8 37.6,9.8"
         style="fill:#5a3425;fill-opacity:1;fill-rule:nonzero;stroke:none"
         id="path58" />
    </g>
  </g>
</svg>
