<?xml version="1.0" encoding="UTF-8" standalone="no"?>
<!-- Created with Inkscape (http://www.inkscape.org/) -->

<svg
   version="1.1"
   id="svg2"
   width="982.8667"
   height="234.67999"
   viewBox="0 0 982.8667 234.67999"
   sodipodi:docname="Logo bitachera.eps"
   xmlns:inkscape="http://www.inkscape.org/namespaces/inkscape"
   xmlns:sodipodi="http://sodipodi.sourceforge.net/DTD/sodipodi-0.dtd"
   xmlns="http://www.w3.org/2000/svg"
   xmlns:svg="http://www.w3.org/2000/svg">
  <defs
     id="defs6" />
  <sodipodi:namedview
     id="namedview4"
     pagecolor="#ffffff"
     bordercolor="#000000"
     borderopacity="0.25"
     inkscape:showpageshadow="2"
     inkscape:pageopacity="0.0"
     inkscape:pagecheckerboard="0"
     inkscape:deskcolor="#d1d1d1" />
  <g
     id="g8"
     inkscape:groupmode="layer"
     inkscape:label="ink_ext_XXXXXX"
     transform="matrix(1.3333333,0,0,-1.3333333,0,234.68)">
    <g
       id="g10"
       transform="scale(0.1)">
      <path
         d="m 3676.1,2.75 h -55.24 v 159.172 h -49.96 v 45.199 h 154.89 V 161.922 H 3676.1 V 2.75"
         style="fill:#2cb8b0;fill-opacity:1;fill-rule:nonzero;stroke:none"
         id="path12" />
      <path
         d="m 3676.1,2.75 h -55.24 v 159.172 h -49.96 v 45.199 h 154.89 V 161.922 H 3676.1 V 2.75"
         style="fill:#2cb8b0;fill-opacity:1;fill-rule:evenodd;stroke:none"
         id="path14" />
      <path
         d="m 3838.81,86.4609 -8.65,33.4301 c -2.06,7.41 -4.6,17.14 -7.51,28.929 -2.93,11.918 -4.96,20.27 -5.79,25.379 -0.88,-4.57 -2.55,-12.469 -4.96,-23.371 -2.59,-10.859 -8,-32.359 -16.54,-64.3671 z M 3860.47,2.75 3850.4,41.0898 h -66.48 L 3773.56,2.75 h -60.49 l 66.58,205.199 h 73.64 L 3920.8,2.75 h -60.33"
         style="fill:#2cb8b0;fill-opacity:1;fill-rule:nonzero;stroke:none"
         id="path16" />
      <path
         d="m 3838.81,86.4609 -8.65,33.4301 c -2.06,7.41 -4.6,17.14 -7.51,28.929 -2.93,11.918 -4.96,20.27 -5.79,25.379 -0.88,-4.57 -2.55,-12.469 -4.96,-23.371 -2.59,-10.859 -8,-32.359 -16.54,-64.3671 z M 3860.47,2.75 3850.4,41.0898 h -66.48 L 3773.56,2.75 h -60.49 l 66.58,205.199 h 73.64 L 3920.8,2.75 h -60.33"
         style="fill:#2cb8b0;fill-opacity:1;fill-rule:evenodd;stroke:none"
         id="path18" />
      <path
         d="m 4028.12,164.809 c -13.05,0 -23.27,-5.45 -30.63,-16.149 -7.46,-10.75 -11.05,-25.582 -11.05,-44.469 0,-39.3902 15.03,-58.9801 44.83,-58.9801 9.03,0 17.72,1.1797 26.27,3.7305 8.49,2.6094 17.04,5.457 25.52,9 V 11.2891 C 4066.03,3.73047 4046.74,0 4025.28,0 c -30.83,0 -54.55,8.87891 -70.9,26.8008 -16.54,17.8789 -24.74,43.75 -24.74,77.5272 0,21.301 3.92,39.922 11.93,55.922 8.06,16.012 19.44,28.281 34.41,36.898 14.83,8.59 32.55,12.813 52.74,12.813 22.14,0 43.25,-4.813 63.38,-14.313 l -16.84,-43.41 c -7.7,3.543 -15.17,6.442 -22.63,8.793 -7.76,2.61 -15.77,3.778 -24.51,3.778"
         style="fill:#2cb8b0;fill-opacity:1;fill-rule:nonzero;stroke:none"
         id="path20" />
      <path
         d="m 4028.12,164.809 c -13.05,0 -23.27,-5.45 -30.63,-16.149 -7.46,-10.75 -11.05,-25.582 -11.05,-44.469 0,-39.3902 15.03,-58.9801 44.83,-58.9801 9.03,0 17.72,1.1797 26.27,3.7305 8.49,2.6094 17.04,5.457 25.52,9 V 11.2891 C 4066.03,3.73047 4046.74,0 4025.28,0 c -30.83,0 -54.55,8.87891 -70.9,26.8008 -16.54,17.8789 -24.74,43.75 -24.74,77.5272 0,21.301 3.92,39.922 11.93,55.922 8.06,16.012 19.44,28.281 34.41,36.898 14.83,8.59 32.55,12.813 52.74,12.813 22.14,0 43.25,-4.813 63.38,-14.313 l -16.84,-43.41 c -7.7,3.543 -15.17,6.442 -22.63,8.793 -7.76,2.61 -15.77,3.778 -24.51,3.778"
         style="fill:#2cb8b0;fill-opacity:1;fill-rule:evenodd;stroke:none"
         id="path22" />
      <path
         d="M 4167.81,105.16 C 4167.81,65.7891 4181.6,46 4209,46 c 14,0 24.4,4.8711 31.27,14.3398 6.78,9.5704 10.02,24.5508 10.02,44.8202 0,20.469 -3.48,35.602 -10.26,45.32 -6.83,9.77 -17.03,14.54 -30.64,14.54 -27.64,0 -41.58,-19.989 -41.58,-59.86 z m 140.76,0 c 0,-34.2108 -8.54,-60.4803 -25.44,-78.3592 C 4266.3,8.87891 4241.55,0 4209,0 c -32.01,0 -56.56,9.07813 -73.59,27 -17.24,18.0195 -25.73,44.1406 -25.73,78.551 0,34.027 8.49,59.961 25.57,77.918 16.99,17.801 41.74,26.84 74.14,26.84 32.5,0 57.05,-8.887 73.99,-26.688 16.65,-17.769 25.19,-43.851 25.19,-78.461"
         style="fill:#2cb8b0;fill-opacity:1;fill-rule:nonzero;stroke:none"
         id="path24" />
      <path
         d="M 4167.81,105.16 C 4167.81,65.7891 4181.6,46 4209,46 c 14,0 24.4,4.8711 31.27,14.3398 6.78,9.5704 10.02,24.5508 10.02,44.8202 0,20.469 -3.48,35.602 -10.26,45.32 -6.83,9.77 -17.03,14.54 -30.64,14.54 -27.64,0 -41.58,-19.989 -41.58,-59.86 z m 140.76,0 c 0,-34.2108 -8.54,-60.4803 -25.44,-78.3592 C 4266.3,8.87891 4241.55,0 4209,0 c -32.01,0 -56.56,9.07813 -73.59,27 -17.24,18.0195 -25.73,44.1406 -25.73,78.551 0,34.027 8.49,59.961 25.57,77.918 16.99,17.801 41.74,26.84 74.14,26.84 32.5,0 57.05,-8.887 73.99,-26.688 16.65,-17.769 25.19,-43.851 25.19,-78.461"
         style="fill:#2cb8b0;fill-opacity:1;fill-rule:evenodd;stroke:none"
         id="path26" />
      <path
         d="m 4501.81,122.352 h 88.13 V 12.2695 C 4566.08,4.12109 4539.62,0 4511.04,0 c -31.52,0 -55.87,9.07813 -73.15,27.2891 -17.19,18.4218 -25.67,44.4414 -25.67,78.2619 0,33.051 9.32,58.578 28.27,76.988 18.71,18.34 45.12,27.422 79.05,27.422 12.76,0 25.09,-1.172 36.47,-3.539 11.45,-2.453 21.31,-5.543 29.81,-9.274 l -17.58,-43.238 c -14.58,7.121 -30.78,10.899 -48.36,10.899 -16.2,0 -28.62,-5.25 -37.46,-15.797 -8.89,-10.41 -13.16,-25.442 -13.16,-44.821 0,-19.1012 3.93,-33.7301 11.93,-43.6519 8.06,-10.0703 19.49,-15.168 34.42,-15.168 8.2,0 15.71,0.8281 22.73,2.3984 v 32.0586 h -36.53 v 42.5239"
         style="fill:#2cb8b0;fill-opacity:1;fill-rule:nonzero;stroke:none"
         id="path28" />
      <path
         d="m 4501.81,122.352 h 88.13 V 12.2695 C 4566.08,4.12109 4539.62,0 4511.04,0 c -31.52,0 -55.87,9.07813 -73.15,27.2891 -17.19,18.4218 -25.67,44.4414 -25.67,78.2619 0,33.051 9.32,58.578 28.27,76.988 18.71,18.34 45.12,27.422 79.05,27.422 12.76,0 25.09,-1.172 36.47,-3.539 11.45,-2.453 21.31,-5.543 29.81,-9.274 l -17.58,-43.238 c -14.58,7.121 -30.78,10.899 -48.36,10.899 -16.2,0 -28.62,-5.25 -37.46,-15.797 -8.89,-10.41 -13.16,-25.442 -13.16,-44.821 0,-19.1012 3.93,-33.7301 11.93,-43.6519 8.06,-10.0703 19.49,-15.168 34.42,-15.168 8.2,0 15.71,0.8281 22.73,2.3984 v 32.0586 h -36.53 v 42.5239"
         style="fill:#2cb8b0;fill-opacity:1;fill-rule:evenodd;stroke:none"
         id="path30" />
      <path
         d="m 4686.9,118.621 h 10.22 c 19.29,0 29.02,8.488 29.02,25.629 0,14.141 -9.43,21.059 -28.28,21.059 h -10.96 z m 0,-41.5897 V 2.75 h -55.22 v 204.371 h 66.96 c 55.38,0 83.22,-20.16 83.22,-60.371 0,-23.672 -11.39,-41.879 -34.62,-54.8398 L 4806.76,2.75 h -62.55 l -43.31,74.2813 h -14"
         style="fill:#2cb8b0;fill-opacity:1;fill-rule:nonzero;stroke:none"
         id="path32" />
      <path
         d="m 4686.9,118.621 h 10.22 c 19.29,0 29.02,8.488 29.02,25.629 0,14.141 -9.43,21.059 -28.28,21.059 h -10.96 z m 0,-41.5897 V 2.75 h -55.22 v 204.371 h 66.96 c 55.38,0 83.22,-20.16 83.22,-60.371 0,-23.672 -11.39,-41.879 -34.62,-54.8398 L 4806.76,2.75 h -62.55 l -43.31,74.2813 h -14"
         style="fill:#2cb8b0;fill-opacity:1;fill-rule:evenodd;stroke:none"
         id="path34" />
      <path
         d="m 4825.31,2.75 v 204.371 h 55.53 V 2.75 h -55.53"
         style="fill:#2cb8b0;fill-opacity:1;fill-rule:nonzero;stroke:none"
         id="path36" />
      <path
         d="m 4825.31,2.75 v 204.371 h 55.53 V 2.75 h -55.53"
         style="fill:#2cb8b0;fill-opacity:1;fill-rule:evenodd;stroke:none"
         id="path38" />
      <path
         d="m 4924.98,2.75 v 204.371 h 55.23 V 47.3789 h 78.75 V 2.75 h -133.98"
         style="fill:#2cb8b0;fill-opacity:1;fill-rule:nonzero;stroke:none"
         id="path40" />
      <path
         d="m 4924.98,2.75 v 204.371 h 55.23 V 47.3789 h 78.75 V 2.75 h -133.98"
         style="fill:#2cb8b0;fill-opacity:1;fill-rule:evenodd;stroke:none"
         id="path42" />
      <path
         d="m 5091.66,2.75 v 204.371 h 55.23 V 47.3789 h 78.61 V 2.75 h -133.84"
         style="fill:#2cb8b0;fill-opacity:1;fill-rule:nonzero;stroke:none"
         id="path44" />
      <path
         d="m 5091.66,2.75 v 204.371 h 55.23 V 47.3789 h 78.61 V 2.75 h -133.84"
         style="fill:#2cb8b0;fill-opacity:1;fill-rule:evenodd;stroke:none"
         id="path46" />
      <path
         d="m 1522.14,508.621 c 31.57,12.758 60.39,30.34 86.46,52.141 59.97,50.449 91,107.547 92.87,171.449 1.38,58.098 -24.69,97.648 -78.53,118.605 -16.25,6.145 -33.61,10.266 -52.17,12.114 -22.36,-1.059 -53.69,-6.684 -93.92,-17.192 -40.24,-10.429 -67.83,-17.398 -82.46,-20.64 -36.15,-89.996 -55.26,-168.399 -57.1,-235.028 -1.03,-32.41 6.98,-57.25 23.84,-74.679 16.89,-17.352 40.24,-26.071 69.72,-26.071 29.48,0 59.97,6.481 91.29,19.301 z m -300.56,4.899 c -10.12,26.761 -14.54,58.968 -13.66,96.82 1.03,37.859 6.31,83.519 16.01,136.84 9.89,53.367 24.7,110.465 44.68,171.445 46.17,141.325 109.04,266.395 188.63,375.005 13.84,18.55 28.13,27.73 43.11,27.73 15.02,0 29.82,-3.18 44.33,-9.86 14.48,-6.8 27.25,-14.63 38.17,-23.67 27.76,-22.85 36.83,-41.41 27.28,-55.75 -67.14,-107.54 -122.21,-204.68 -164.95,-291.287 108.04,7.535 203.11,41.781 285.6,102.787 89.99,66.13 135.01,146.72 135.01,241.53 0,64.21 -31.9,105.14 -95.78,122.69 -19.47,5.28 -42.62,7.98 -69.57,7.98 -26.93,0 -54.87,-2.9 -83.66,-8.35 -28.8,-5.45 -56.39,-12.96 -83.15,-22.51 -52.87,-19.4 -59.65,115.75 74.97,130.03 25.21,2.44 58.97,3.59 101.02,3.59 42.35,0 85.28,-6.81 129.42,-20.74 43.97,-13.83 79.39,-32.24 106,-55.59 49.09,-43.76 73.6,-104.82 73.6,-182.86 0,-70.54 -27.97,-140.12 -83.5,-208.6 -50.98,-63.414 -116.75,-114.723 -197.19,-154.219 38.49,-17.234 67.48,-41.074 86.75,-71.726 19.22,-30.879 28.48,-63.977 27.45,-99.395 -0.86,-35.48 -8.03,-68.051 -20.97,-97.832 -13.15,-29.848 -30.68,-56.808 -52.83,-80.808 -22.18,-24.008 -47.89,-45.168 -77.22,-63.54 -29.29,-18.261 -60.15,-33.41 -92.53,-45.332 -66.13,-24.726 -133.29,-37.148 -201.44,-37.148 -95.64,0 -157.5,37.66 -185.58,112.77"
         style="fill:#ed1280;fill-opacity:1;fill-rule:evenodd;stroke:none"
         id="path48" />
      <path
         d="m 1998.55,467.871 c -7.48,15.629 -11.44,34.75 -11.44,57.098 0,22.48 4.13,47.371 11.94,74.679 7.82,27.391 17.57,56.211 29.11,86.403 11.78,30.34 24.57,60.808 38.42,91.84 l 37.83,89.968 c 27.57,67.137 41.41,111.45 41.41,132.951 0,21.31 -2.23,35.6 -6.85,42.42 -4.59,7.02 -9.4,12.28 -14.66,16.06 l -14.33,10.01 c -4.76,3.39 -7.17,9.21 -7.17,17.55 0,8.38 3.27,16.23 9.75,23.84 6.43,7.71 14.82,14.36 25.38,19.98 21.45,11.1 46.39,16.55 74.97,16.55 69.91,0 105.02,-18.41 105.02,-55.06 0,-42.79 -11.3,-91.84 -33.56,-146.726 -22.32,-55.094 -41.41,-99.418 -57.13,-133.297 l -42.91,-98.516 c -31.34,-72.441 -47.23,-124.582 -47.05,-156.441 -0.18,-20.942 10.38,-31.328 31.35,-31.328 20.47,0 35.96,2.507 46.34,7.808 10.58,5.301 18.24,7.852 22.83,7.852 12.47,0 18.61,-8.203 18.61,-24.371 0,-21.34 -9.75,-43.481 -29.17,-66.313 -28.62,-33.43 -66.96,-50.078 -115.03,-50.078 -55.21,0 -93.04,22.289 -113.66,67.121"
         style="fill:#ed1280;fill-opacity:1;fill-rule:evenodd;stroke:none"
         id="path50" />
      <path
         d="m 2484.22,503.66 c -24.18,81.328 12.32,253.961 109.48,517.73 -54.93,4.83 -84.54,14.36 -89.35,28.67 -1.52,4.27 -2.19,8.86 -2.19,13.8 0,5.12 2.43,10.94 6.85,17.54 4.59,6.66 10.41,13.14 17.51,19.3 16.52,13.77 33.6,20.79 50.61,20.79 h 56.44 c 51.43,120.44 88.08,188.98 110.08,205.67 10.36,7.66 22.19,11.41 34.93,11.41 12.96,0 23.59,-1.69 32.23,-4.88 8.54,-3.44 16.21,-8.22 22.83,-14.34 15.15,-14.33 22.85,-30.34 22.85,-47.92 0,-9.52 -2.94,-20.45 -8.51,-32.89 L 2795,1123.68 h 17.19 c 29.48,-0.18 53.34,0.12 71.38,0.68 0,0 13.65,0.18 40.73,0.69 9.03,0.5 20.25,0.66 33.92,0.66 13.63,0 20.47,-4.96 20.47,-15.02 0,-62.85 -74.3,-94.22 -222.94,-94.22 h -5.8 l -48.53,-125.779 c -54.74,-148.421 -82.19,-252.562 -82.19,-312.011 0,-16.739 3.93,-29.711 11.44,-39.051 7.66,-9.207 22,-13.777 42.94,-13.777 20.96,0 40.06,3.339 57.07,10.546 17.24,7.122 32.18,15.153 44.98,24.071 12.98,8.793 24.1,16.64 33.28,23.793 9.36,7.129 17.24,10.75 24.01,10.75 13.8,0 20.6,-9.211 20.6,-27.782 0,-15.859 -4.76,-30.992 -14.29,-45.851 -12.74,-27.609 -38.51,-53.66 -77.01,-78.399 -43.81,-28.089 -87.98,-42.23 -132.32,-42.23 -76.63,0 -125.19,34.25 -145.71,102.91"
         style="fill:#ed1280;fill-opacity:1;fill-rule:evenodd;stroke:none"
         id="path52" />
      <path
         d="m 3255.82,580.691 c 59.95,70.059 112.97,164.309 159.17,282.903 14.83,37.16 27.25,74.324 37.1,111.492 -1.79,32.324 -15.42,56.024 -40.66,71.414 -8.54,5.27 -21.32,7.83 -38.24,7.83 -16.87,0 -36.6,-6.14 -59.26,-18.58 -22.71,-12.45 -44.51,-29.32 -65.62,-50.797 -21.36,-21.308 -41.09,-46.687 -59.31,-76 -18.46,-29.336 -34.42,-61.023 -48.26,-95.273 -29.12,-73.43 -43.57,-146.231 -43.57,-218.668 0,-57.114 18.33,-85.731 55.01,-85.731 28.11,0 62.55,23.86 103.64,71.41 z m 177.73,-172.769 c -30.88,10.879 -53.85,34.519 -68.51,70.699 -7.17,18.559 -10.73,35.449 -10.73,50.758 0,24.75 2.41,50.769 7.17,78.562 -44.33,-90.492 -99.37,-152.832 -164.99,-187.113 -26.27,-13.5 -54.01,-20.078 -83.51,-20.078 -29.66,0 -55.21,6.078 -76.81,18.238 -21.68,12.051 -40.12,28.953 -55.43,50.203 -30.84,44.879 -45,101.09 -42.11,168.75 2.9,84.758 27.81,167.711 75.05,249.164 43.2,76.2 97.94,138.375 164.28,186.465 66.08,49.06 128.14,73.65 185.53,73.65 57.79,0 104.14,-26.47 139.44,-79.24 32.89,52.77 61.83,79.24 87.12,79.24 27.1,0 47.5,-5.16 61.3,-15.02 26.23,-19.08 35.6,-35.77 27.99,-50.08 C 3559.86,837.371 3498.29,685 3495.12,625.031 c -1.05,-8.57 -1.55,-17.582 -1.55,-27.101 0,-43.801 15.5,-65.77 46.47,-65.77 21.34,0 39.06,3.371 53.18,10.02 14.01,6.601 23.37,10.031 28.17,10.031 10.02,0 15,-5.301 15,-15.813 0,-40.937 -21.32,-76.187 -64.29,-105.679 -45.14,-30.848 -91.32,-38.508 -138.55,-22.797"
         style="fill:#ed1280;fill-opacity:1;fill-rule:evenodd;stroke:none"
         id="path54" />
      <path
         d="m 3791.43,467.211 c -41.93,43.809 -61.86,106.168 -60,187.117 0.89,41.422 7.51,82.641 19.59,123.934 12.08,41.187 28.29,80.078 48.61,116.746 20.28,36.578 44.33,70.551 72.08,101.535 27.93,30.857 58.33,57.587 91.17,79.927 68.53,47.21 140.61,70.75 216.46,70.75 78.12,0 131.04,-31.23 159.17,-93.58 10.07,-22.53 14.68,-47.72 14.05,-76.195 -0.74,-28.234 -5.5,-54.207 -14.05,-77.746 -8.54,-23.668 -19.24,-44.633 -32.2,-63.168 -28.97,-41.953 -58.27,-62.89 -87.74,-62.89 -32.89,0 -57.05,9.011 -72.96,27.05 -13.59,15.684 -18.01,34.122 -12.76,55.071 1.52,6.109 5.84,11.758 12.76,16.715 7.17,5.097 16.2,12.961 27.31,24.054 30.83,32.328 47.03,70.211 48.55,113.459 0.83,29.51 -17.23,44.34 -54.4,44.34 -39.86,0 -81.8,-22.34 -125.64,-67.162 -63.92,-65.281 -108.84,-148.773 -134.92,-250.699 -23.07,-88.61 -18.6,-153.399 12.72,-194.289 18.61,-23.86 43.84,-35.801 75.71,-35.629 53.91,-0.172 105.9,18.91 155.78,57.097 15.23,11.891 27.65,24.012 37.17,36.481 9.57,12.281 18.26,18.41 26.42,18.41 7.99,0 14.82,-3.918 20.32,-11.769 5.4,-7.821 8.3,-17.918 8.3,-30.348 0,-28.133 -12.81,-55.731 -38.01,-82.832 -64.76,-61.879 -142.62,-92.84 -233.5,-92.84 -77.72,0 -137.72,22.102 -179.99,66.461"
         style="fill:#ed1280;fill-opacity:1;fill-rule:evenodd;stroke:none"
         id="path56" />
      <path
         d="m 4420.36,407.559 c -11.63,4.589 -21.8,10.382 -30.34,17.55 -18.07,15.11 -27.1,31.832 -27.1,49.93 0,7.121 4.96,21.109 15.02,42.102 l 28.43,57.91 c 89.16,183.219 169.77,415.742 242.24,697.089 26.52,103.77 46.01,197.16 57.69,279.98 5.35,40.06 24.94,60 58.67,60 22,0 40.02,-5.26 54.35,-15.67 27.64,-20.42 40.9,-42.41 39.92,-65.78 -0.88,-23.38 -4.27,-49.45 -9.92,-78.56 -5.75,-28.99 -13.06,-60.54 -22.19,-94.61 -8.94,-34.07 -19.2,-69.86 -30.64,-107.52 -31.52,-95.59 -54.89,-164.67 -70.01,-207.07 -46.7,-128.191 -75.5,-203.156 -86.41,-224.98 7.16,8.496 16.34,20.125 27.79,34.929 86.75,113.883 140.26,181.881 160.69,204.021 20.42,22 37.85,39.04 52.14,50.96 29.95,26.22 68.15,39.38 114.35,39.38 37.51,0 67.85,-12.62 90.68,-37.86 21.46,-24.37 32.21,-50.96 32.21,-79.78 0,-28.77 -3.24,-54.689 -9.72,-77.861 -6.48,-22.981 -14.64,-46.352 -24.7,-70.254 -9.87,-23.82 -21.01,-48.371 -32.95,-73.606 l -35.54,-75.019 c -33.43,-75.61 -50.13,-131.852 -49.98,-168.5 -0.15,-25.75 10.41,-38.488 31.37,-38.488 19.98,0 38.2,4.226 54.7,12.738 16.4,8.519 26.95,12.781 31.71,12.781 10.07,0 14.98,-4.949 14.98,-14.973 0,-42.257 -21.45,-77.738 -64.22,-106.328 -29.46,-19.5 -56.41,-29.32 -80.76,-29.32 -24.26,0 -44.34,2.559 -60.39,7.461 -15.81,5.109 -30.15,13.309 -42.42,24.75 -28.14,25.699 -42.08,63.527 -42.08,113.461 0,53.859 17.58,121.566 52.83,202.816 l 77.03,164.305 c 14.78,30.512 22.19,54.57 22.19,72.246 0,17.581 -9.77,26.461 -29.36,26.461 -26.07,0 -72.96,-40.109 -140.61,-120.016 l -59.26,-72.976 -114.39,-149.289 c -27.64,-52.309 -49.25,-95.91 -64.96,-130.668 l -38.54,-82.852 c -10.02,-20.449 -18.7,-34.929 -26.02,-43.129 -7.52,-8.289 -17.43,-12.57 -30,-12.57 -12.62,0 -24.74,2.16 -36.48,6.809"
         style="fill:#ed1280;fill-opacity:1;fill-rule:evenodd;stroke:none"
         id="path58" />
      <path
         d="m 5620.04,833.594 c 53.82,51.453 80.56,100.715 80.56,147.801 0,47.155 -16.34,70.725 -49.23,70.725 -49.94,0 -98,-34.27 -144.2,-102.811 -39.18,-59.067 -70.5,-129.028 -94.42,-209.938 79.59,8 148.62,39.524 207.29,94.223 z M 5301.45,463.621 c -47.67,47.527 -70.02,112.289 -67.12,194.301 1.92,41.379 8.7,81.109 20.63,118.961 11.92,37.785 27.93,74.48 47.92,109.902 19.88,35.473 43.45,69.028 70.35,100.723 26.9,31.722 56.07,59.452 87.44,83.172 68.15,50.96 136.84,76.54 206.36,76.54 81.49,0 135.9,-33.61 162.95,-100.72 9.52,-22.81 13.99,-49.957 13.65,-81.16 -0.55,-31.152 -6.53,-59.973 -17.92,-86.406 -11.44,-26.399 -27.25,-50.45 -47.53,-72.098 -20.32,-21.652 -44.33,-41.047 -72.07,-58.316 -27.99,-17 -58.33,-31.641 -91.22,-43.411 -67.46,-23.871 -139.88,-36.308 -217.11,-37.121 -1.91,-6.726 -3.09,-16.738 -3.58,-30.047 -0.34,-13.461 1.02,-28.281 4.41,-44.632 3.24,-16.539 9.08,-31.219 17.04,-43.969 17.23,-28.649 41.98,-42.961 74.33,-42.789 55.24,-0.172 109.09,16.019 161.39,48.418 18.55,11.09 33.77,22.312 45.31,34.07 11.78,11.582 21.85,17.371 30.39,17.371 8.64,0 16.2,-5.09 22.49,-15.308 6.42,-10.231 9.72,-21.84 9.72,-34.59 0,-25.262 -7.17,-47.231 -21.51,-65.813 -59.99,-59.98 -149.25,-89.949 -267.72,-89.949 -70.06,0 -126.33,20.969 -168.6,62.871"
         style="fill:#ed1280;fill-opacity:1;fill-rule:evenodd;stroke:none"
         id="path60" />
      <path
         d="m 5952.53,407.559 c -12.28,4.589 -22.98,10.382 -32.56,17.55 -9.52,7.161 -17.23,15.02 -22.82,23.852 -5.8,8.84 -8.89,16.348 -9.44,22.82 -0.49,6.469 0.89,14.328 3.99,23.68 3.18,9.25 7.31,20.48 12.57,33.918 97.15,238.937 145.76,399.48 145.76,481.301 -1.57,22.83 -9.43,39.03 -23.66,48.61 l -14.19,10.01 c -4.42,3.39 -6.63,9.21 -6.78,17.55 -0.39,8.38 2.65,16.23 8.79,23.84 6.29,7.71 14.33,14.36 24.4,19.98 20.42,11.1 41.44,16.55 63.04,16.55 21.84,0 38.69,-2.41 50.87,-7.17 12.02,-4.76 22.43,-11.24 30.93,-19.3 18.06,-17.18 27.34,-35.24 27.58,-54.3 0.26,-18.92 -1.81,-38.39 -6.42,-57.83 -4.62,-19.542 -9.88,-38.69 -16.01,-57.593 -6.34,-18.754 -12.47,-36.625 -18.6,-53.515 -6.29,-16.84 -10.22,-29.457 -12.08,-37.465 -3.93,-16.707 -5.26,-27.149 -4.43,-31.367 11.45,9.875 18.36,19.785 20.78,29.113 l 27.78,52.977 c 62.01,111.35 122.4,185.15 181.46,221.43 17.09,9.86 37.71,15.02 61.77,15.02 24.01,0 43.45,-8.52 58.27,-25.38 14.84,-16.89 22.49,-35.67 23.18,-56.12 0.69,-20.48 -0.69,-37.51 -4.27,-51.14 -3.54,-13.45 -8.84,-26.189 -16.01,-38.123 -15.66,-26.605 -34.76,-40.059 -57.24,-40.059 -6.19,0 -11.79,2.184 -17.09,6.481 l -15.66,13.598 c -15.86,13.8 -30.84,20.621 -45.51,20.621 -14.49,0 -32.06,-9.551 -52.83,-28.45 -20.67,-19.097 -42.27,-43.625 -64.62,-73.601 -75.11,-99.563 -136.63,-211.035 -184.25,-334.219 L 6037.7,457.98 c -7.95,-20.601 -15.11,-35.289 -21.31,-43.968 -6.23,-8.871 -15.26,-13.262 -27.53,-13.262 -12.13,0 -24.21,2.16 -36.33,6.809"
         style="fill:#ed1280;fill-opacity:1;fill-rule:evenodd;stroke:none"
         id="path62" />
      <path
         d="m 6826.99,580.691 c 59.99,70.059 113.16,164.309 159.37,282.903 14.82,37.16 27.05,74.324 37.11,111.492 -1.81,32.324 -15.46,56.024 -40.7,71.414 -8.54,5.27 -21.31,7.83 -38.2,7.83 -16.84,0 -36.57,-6.14 -59.31,-18.58 -22.63,-12.45 -44.43,-29.32 -65.79,-50.797 -21.11,-21.308 -40.84,-46.687 -59.06,-76 -18.46,-29.336 -34.46,-61.023 -48.31,-95.273 -29.16,-73.43 -43.6,-146.231 -43.6,-218.668 0,-57.114 18.22,-85.731 55.04,-85.731 28.13,0 62.55,23.86 103.45,71.41 z m 177.97,-172.769 c -31.03,10.879 -53.86,34.519 -68.54,70.699 -7.16,18.559 -10.7,35.449 -10.7,50.758 0,24.75 2.35,50.769 7.17,78.562 -44.39,-90.492 -99.38,-152.832 -165.22,-187.113 -26.06,-13.5 -54,-20.078 -83.45,-20.078 -29.51,0 -55.09,6.078 -76.74,18.238 -21.65,12.051 -40.22,28.953 -55.38,50.203 -31.04,44.879 -44.98,101.09 -42.13,168.75 2.75,84.758 27.78,167.711 75.02,249.164 43.3,76.2 97.95,138.375 164.28,186.465 66.13,49.06 127.99,73.65 185.63,73.65 57.59,0 104.14,-26.47 139.19,-79.24 32.9,52.77 62.06,79.24 87.29,79.24 27.1,0 47.58,-5.16 61.37,-15.02 26.22,-19.08 35.45,-35.77 27.94,-50.08 -119.6,-244.749 -181.01,-397.12 -184.4,-457.089 -0.89,-8.57 -1.38,-17.582 -1.38,-27.101 0,-43.801 15.57,-65.77 46.35,-65.77 21.5,0 39.18,3.371 53.37,10.02 13.93,6.601 23.32,10.031 28.13,10.031 10.06,0 14.97,-5.301 14.97,-15.813 0,-40.937 -21.45,-76.187 -64.22,-105.679 -45.21,-30.848 -91.41,-38.508 -138.55,-22.797"
         style="fill:#ed1280;fill-opacity:1;fill-rule:evenodd;stroke:none"
         id="path64" />
      <path
         d="m 2219.1,1426.87 c 26.85,26.95 70.7,26.95 97.68,0 27.02,-27.1 27.02,-70.89 0,-97.82 -26.98,-26.93 -70.83,-26.93 -97.68,0 -27.15,26.93 -27.15,70.72 0,97.82"
         style="fill:#ed1280;fill-opacity:1;fill-rule:evenodd;stroke:none"
         id="path66" />
      <path
         d="m 1484.51,1040.68 c 282.4,71.93 380.25,138.58 354.53,186.81 C 1817.73,1183.5 1709.81,1129.5 1484.51,1072 1197.51,998.898 777.422,1193.02 366.332,1202.75 88,1209.43 28.5195,1130.04 36.5508,1033.39 c 7.8281,81.77 82.1602,143.98 329.7812,138.01 411.09,-9.72 831.178,-203.853 1118.178,-130.72 z M 347.746,655.32 l 0.887,-0.148 c -0.195,0 -0.344,0 -0.887,0.148 z M 182.441,640.172 v 0 z m 7.856,-21.133 v 0 0 z m 39.027,-46.348 -0.859,0.2 6.824,28.429 0.52,-0.199 v 0 c -7.168,3.93 -9.918,13.16 -5.993,20.129 0.836,1.52 1.719,2.738 2.899,3.781 v -0.179 l -18.067,66.796 -49.785,13.461 17.578,-64.937 c 0.688,-0.172 1.375,-0.512 2.012,-0.863 7.215,-3.918 9.914,-12.95 5.844,-20.118 v -0.152 l 0.34,0.34 18.043,-19.731 -0.684,-0.546 -17.894,19.589 c -2.383,-3.902 -6.286,-6.48 -10.563,-6.941 l 3.098,-21.328 -1.059,-0.184 -2.867,21.282 c -2.75,-0.149 -5.5,0.23 -8.004,1.57 l -7.023,-28.281 -0.832,0.3 6.972,28.282 0.391,-0.153 v 0.153 c -7.219,3.929 -9.774,12.968 -5.844,19.929 0.692,1.551 1.723,2.782 2.75,3.789 v -0.199 l -19.785,72.981 -56.9532,15.519 17.9222,-65.969 v 0 c 0.687,-0.339 1.351,-0.543 2.035,-0.832 7.168,-4.129 9.723,-13.16 5.816,-20.281 l 0.348,0.32 17.867,-19.777 -0.492,-0.492 -17.918,19.562 c -2.356,-3.929 -6.305,-6.461 -10.551,-7.14 l 3.067,-21.141 -1.008,-0.148 -2.946,21.289 c -2.703,-0.321 -5.5972,0.16 -7.9527,1.539 l -7.0195,-28.301 -0.8594,0.172 7.0195,28.469 0.3164,-0.192 v 0 c -7.1679,3.922 -9.7187,12.961 -5.789,20.082 0.6836,1.418 1.7187,2.75 2.6992,3.629 l -19.8867,73.942 -13.3516,3.589 c -50.94139,161.399 -190.4962,551.2 275.2848,501.91 411.082,-9.72 831.156,-204 1118.176,-130.69 628.42,160.03 343.23,293.82 -185.93,256.53 18.56,-90.22 35.94,-174.1 44.46,-194.35 -56.73,-9.7 -127.63,-21.63 -201.08,-33.22 -116.946,18.39 -242.876,48.56 -372.887,75.32 62.5,134.84 146.898,364.05 162.019,409.22 19.789,58.96 155.468,140.61 203.068,141.62 47.33,1.01 86.7,-77.74 109.7,-151.84 11.07,-35.14 29.83,-125.95 48.44,-216.66 -23.05,-2.38 -44.68,-4.76 -64.12,-6.97 21.8,2.06 43.3,3.93 64.44,5.28 1.86,-8.84 3.78,-17.9 5.62,-26.76 205.2,21.34 526.63,44.68 583.03,-70.03 C 1912.66,1165.78 1667.77,847.605 1307.29,798.824 946.629,750.25 310.926,1007.1 268.016,936.547 226.574,868.543 335.672,659.961 347.746,655.32 l -46.348,12.668 16.356,-25.949 v 0.191 c 0.684,-0.191 1.516,-0.191 2.23,-0.371 8.004,-1.687 13.282,-9.519 11.563,-17.57 l 0.195,0.402 23,-13.48 -0.512,-0.871 -22.878,13.461 c -0.985,-4.422 -4.055,-7.84 -7.954,-9.871 l 9.153,-19.239 -0.809,-0.55 -9.035,19.449 c -2.578,-1.031 -5.449,-1.379 -8.344,-0.84 l 1.867,-28.988 -0.886,-0.203 -1.84,29.191 0.512,0.148 v 0 c -8,1.524 -13.129,9.372 -11.434,17.403 0.195,1.551 0.879,3.019 1.52,4.398 l -24.864,39.371 -47.215,12.821 16.032,-58.832 c 0.687,-0.34 1.379,-0.481 2.062,-0.829 7,-3.921 9.699,-12.949 5.77,-20.121 v -0.148 l 0.347,0.289 17.918,-19.59 -0.687,-0.68 -17.895,19.59 c -2.238,-3.91 -6.136,-6.441 -10.433,-6.922 l 2.918,-21.339 -0.836,-0.168 -3.114,21.308 c -2.554,-0.347 -5.449,0.199 -7.953,1.539 l -6.828,-28.297"
         style="fill:#ed1280;fill-opacity:1;fill-rule:evenodd;stroke:none"
         id="path68" />
      <path
         d="m 7336.95,963.645 c 7.81,4.468 13.95,10.41 18.21,18.265 4.23,7.805 6.54,16.004 6.54,24.52 0,8.52 -2.31,16.72 -6.73,24.68 -4.42,7.85 -10.51,14.01 -18.36,18.26 -7.8,4.27 -16.01,6.48 -24.25,6.48 -8.3,0 -16.36,-2.21 -24.16,-6.48 -8.06,-4.25 -14.19,-10.41 -18.55,-18.26 -4.52,-7.96 -6.68,-16.16 -6.68,-24.68 0,-8.516 2.16,-16.715 6.68,-24.52 4.22,-7.855 10.35,-13.797 18.21,-18.265 7.8,-4.418 15.96,-6.477 24.5,-6.477 8.54,0 16.69,2.059 24.59,6.477 z m -54,-8.516 c -9.43,5.078 -16.74,12.418 -21.9,21.82 -5.25,9.528 -7.81,19.25 -7.81,29.481 0,10.24 2.56,20.11 7.81,29.68 5.5,9.5 12.82,16.67 22.14,21.75 9.58,5.16 19.35,7.73 29.17,7.73 9.91,0 19.59,-2.57 29.02,-7.73 9.52,-5.08 16.83,-12.25 22.08,-21.75 5.36,-9.57 8.06,-19.44 8.06,-29.68 0,-10.231 -2.7,-19.953 -7.81,-29.481 -5.3,-9.402 -12.47,-16.742 -21.85,-21.82 -9.32,-5.277 -19.24,-7.832 -29.5,-7.832 -10.21,0 -20.09,2.555 -29.41,7.832"
         style="fill:#ed1280;fill-opacity:1;fill-rule:nonzero;stroke:none"
         id="path70" />
      <g
         id="g72"
         transform="scale(10)">
        <text
           xml:space="preserve"
           transform="matrix(1,0,0,-1,728.072,97.607)"
           style="font-variant:normal;font-weight:normal;font-size:8.69191px;font-family:Helvetica;-inkscape-font-specification:Helvetica;writing-mode:lr-tb;fill:#ed1280;fill-opacity:1;fill-rule:nonzero;stroke:none"
           id="text76"><tspan
             x="0"
             y="0"
             id="tspan74">R</tspan></text>
      </g>
      <path
         d="M 366.332,1171.4 C 118.711,1177.37 44.3789,1115.16 36.5508,1033.39 28.5195,1130.04 88,1209.43 366.332,1202.75 777.422,1193.02 1197.51,998.898 1484.51,1072 c 225.3,57.5 333.22,111.5 354.53,155.49 25.72,-48.23 -72.13,-114.88 -354.53,-186.81 -287,-73.133 -707.088,121 -1118.178,130.72"
         style="fill:#2cb8b0;fill-opacity:1;fill-rule:evenodd;stroke:none"
         id="path78" />
    </g>
  </g>
</svg>
